# Blender v2.91.0 OBJ File: 'Scene_Base.blend'
# www.blender.org
mtllib Scene_Base_Enclosed.mtl
o Walls_Cube.002
v -22.000000 0.000000 22.000000
v -22.000000 0.000000 20.000000
v 22.000000 0.000000 22.000000
v 22.000000 0.000000 20.000000
v -22.000000 10.000000 22.000000
v -22.000000 10.000000 20.000000
v 22.000000 10.000000 22.000000
v 22.000000 10.000000 20.000000
v 46.000000 0.000000 9.999999
v 46.000000 0.000000 -10.000000
v 47.999996 0.000000 9.999999
v 47.999996 0.000000 -10.000000
v 46.000000 10.000000 9.999999
v 46.000000 10.000000 -10.000000
v 47.999996 10.000000 9.999999
v 47.999996 10.000000 -10.000000
v 22.000000 0.000000 9.999999
v 22.000000 0.000000 7.999999
v 46.000000 0.000000 9.999999
v 46.000000 0.000000 7.999999
v 22.000000 10.000000 9.999999
v 22.000000 10.000000 7.999999
v 46.000000 10.000000 9.999999
v 46.000000 10.000000 7.999999
v -21.999998 0.000000 19.999998
v -21.999998 0.000000 -20.000000
v -19.999998 0.000000 19.999998
v -19.999998 0.000000 -20.000000
v -21.999998 10.000000 19.999998
v -21.999998 10.000000 -20.000000
v -19.999998 10.000000 19.999998
v -19.999998 10.000000 -20.000000
v 19.999998 0.000000 19.999998
v 19.999998 0.000000 8.000000
v 21.999998 0.000000 19.999998
v 21.999998 0.000000 8.000000
v 19.999998 10.000000 19.999998
v 19.999998 10.000000 8.000000
v 21.999998 10.000000 19.999998
v 21.999998 10.000000 8.000000
v -21.999998 0.000000 -20.000000
v -21.999998 0.000000 -22.000000
v 21.999998 0.000000 -20.000000
v 21.999998 0.000000 -22.000000
v -21.999998 10.000000 -20.000000
v -21.999998 10.000000 -22.000000
v 21.999998 10.000000 -20.000000
v 21.999998 10.000000 -22.000000
v 22.000000 0.000000 -8.000000
v 22.000000 0.000000 -10.000000
v 46.000000 0.000000 -8.000000
v 46.000000 0.000000 -10.000000
v 22.000000 10.000000 -8.000000
v 22.000000 10.000000 -10.000000
v 46.000000 10.000000 -8.000000
v 46.000000 10.000000 -10.000000
v 19.999998 0.000000 -8.000000
v 19.999998 0.000000 -20.000000
v 21.999998 0.000000 -8.000000
v 21.999998 0.000000 -20.000000
v 19.999998 10.000000 -8.000000
v 19.999998 10.000000 -20.000000
v 21.999998 10.000000 -8.000000
v 21.999998 10.000000 -20.000000
v -22.000000 0.000000 20.000000
v -22.000000 0.000000 22.000000
v -22.000000 10.000000 20.000000
v -22.000000 10.000000 22.000000
v -22.000000 0.000000 20.000000
v 22.000000 0.000000 20.000000
v -22.000000 10.000000 20.000000
v 22.000000 10.000000 20.000000
v -22.000000 0.000000 22.000000
v 22.000000 0.000000 22.000000
v -22.000000 10.000000 22.000000
v 22.000000 10.000000 22.000000
v 22.000000 0.000000 20.000000
v 22.000000 0.000000 22.000000
v 22.000000 10.000000 20.000000
v 22.000000 10.000000 22.000000
v 46.000000 0.000000 -10.000000
v 46.000000 0.000000 9.999999
v 46.000000 10.000000 -10.000000
v 46.000000 10.000000 9.999999
v 46.000000 0.000000 -10.000000
v 47.999996 0.000000 -10.000000
v 46.000000 10.000000 -10.000000
v 47.999996 10.000000 -10.000000
v 46.000000 0.000000 9.999999
v 47.999996 0.000000 9.999999
v 46.000000 10.000000 9.999999
v 47.999996 10.000000 9.999999
v 47.999996 0.000000 -10.000000
v 47.999996 0.000000 9.999999
v 47.999996 10.000000 -10.000000
v 47.999996 10.000000 9.999999
v 22.000000 0.000000 7.999999
v 22.000000 0.000000 9.999999
v 22.000000 10.000000 7.999999
v 22.000000 10.000000 9.999999
v 22.000000 0.000000 7.999999
v 46.000000 0.000000 7.999999
v 22.000000 10.000000 7.999999
v 46.000000 10.000000 7.999999
v 22.000000 0.000000 9.999999
v 46.000000 0.000000 9.999999
v 22.000000 10.000000 9.999999
v 46.000000 10.000000 9.999999
v 46.000000 0.000000 7.999999
v 46.000000 0.000000 9.999999
v 46.000000 10.000000 7.999999
v 46.000000 10.000000 9.999999
v -21.999998 0.000000 -20.000000
v -21.999998 0.000000 19.999998
v -21.999998 10.000000 -20.000000
v -21.999998 10.000000 19.999998
v -21.999998 0.000000 -20.000000
v -19.999998 0.000000 -20.000000
v -21.999998 10.000000 -20.000000
v -19.999998 10.000000 -20.000000
v -21.999998 0.000000 19.999998
v -19.999998 0.000000 19.999998
v -21.999998 10.000000 19.999998
v -19.999998 10.000000 19.999998
v -19.999998 0.000000 -20.000000
v -19.999998 0.000000 19.999998
v -19.999998 10.000000 -20.000000
v -19.999998 10.000000 19.999998
v 19.999998 0.000000 8.000000
v 19.999998 0.000000 19.999998
v 19.999998 10.000000 8.000000
v 19.999998 10.000000 19.999998
v 19.999998 0.000000 8.000000
v 21.999998 0.000000 8.000000
v 19.999998 10.000000 8.000000
v 21.999998 10.000000 8.000000
v 19.999998 0.000000 19.999998
v 21.999998 0.000000 19.999998
v 19.999998 10.000000 19.999998
v 21.999998 10.000000 19.999998
v 21.999998 0.000000 8.000000
v 21.999998 0.000000 19.999998
v 21.999998 10.000000 8.000000
v 21.999998 10.000000 19.999998
v -21.999998 0.000000 -22.000000
v -21.999998 0.000000 -20.000000
v -21.999998 10.000000 -22.000000
v -21.999998 10.000000 -20.000000
v -21.999998 0.000000 -22.000000
v 21.999998 0.000000 -22.000000
v -21.999998 10.000000 -22.000000
v 21.999998 10.000000 -22.000000
v -21.999998 0.000000 -20.000000
v 21.999998 0.000000 -20.000000
v -21.999998 10.000000 -20.000000
v 21.999998 10.000000 -20.000000
v 21.999998 0.000000 -22.000000
v 21.999998 0.000000 -20.000000
v 21.999998 10.000000 -22.000000
v 21.999998 10.000000 -20.000000
v 22.000000 0.000000 -10.000000
v 22.000000 0.000000 -8.000000
v 22.000000 10.000000 -10.000000
v 22.000000 10.000000 -8.000000
v 22.000000 0.000000 -10.000000
v 46.000000 0.000000 -10.000000
v 22.000000 10.000000 -10.000000
v 46.000000 10.000000 -10.000000
v 22.000000 0.000000 -8.000000
v 46.000000 0.000000 -8.000000
v 22.000000 10.000000 -8.000000
v 46.000000 10.000000 -8.000000
v 46.000000 0.000000 -10.000000
v 46.000000 0.000000 -8.000000
v 46.000000 10.000000 -10.000000
v 46.000000 10.000000 -8.000000
v 19.999998 0.000000 -20.000000
v 19.999998 0.000000 -8.000000
v 19.999998 10.000000 -20.000000
v 19.999998 10.000000 -8.000000
v 19.999998 0.000000 -20.000000
v 21.999998 0.000000 -20.000000
v 19.999998 10.000000 -20.000000
v 21.999998 10.000000 -20.000000
v 19.999998 0.000000 -8.000000
v 21.999998 0.000000 -8.000000
v 19.999998 10.000000 -8.000000
v 21.999998 10.000000 -8.000000
v 21.999998 0.000000 -20.000000
v 21.999998 0.000000 -8.000000
v 21.999998 10.000000 -20.000000
v 21.999998 10.000000 -8.000000
vt 0.318009 0.841077
vt 0.755047 0.841077
vt 0.755047 0.821212
vt 0.318009 0.821212
vt 0.318009 0.794696
vt 0.755047 0.794696
vt 0.755047 0.774831
vt 0.318009 0.774831
vt 0.980217 0.920539
vt 0.980217 0.900672
vt 0.781562 0.900672
vt 0.781562 0.920539
vt 0.251765 0.291332
vt 0.251765 0.271465
vt 0.053111 0.271465
vt 0.053111 0.291332
vt 0.053113 0.794696
vt 0.291497 0.794696
vt 0.291497 0.774831
vt 0.053113 0.774831
vt 0.092841 0.933835
vt 0.331225 0.933835
vt 0.331225 0.913970
vt 0.092841 0.913970
vt 0.755047 0.933836
vt 0.755047 0.913970
vt 0.357741 0.913970
vt 0.357741 0.933836
vt 0.755047 0.887456
vt 0.755047 0.867591
vt 0.357741 0.867591
vt 0.357741 0.887456
vt 0.145789 0.463552
vt 0.145789 0.443687
vt 0.026596 0.443687
vt 0.026596 0.463552
vt 0.145789 0.417173
vt 0.145789 0.397308
vt 0.026596 0.397308
vt 0.026596 0.417173
vt 0.119355 0.748317
vt 0.556393 0.748317
vt 0.556393 0.728452
vt 0.119355 0.728452
vt 0.119355 0.701938
vt 0.556393 0.701938
vt 0.556393 0.682073
vt 0.119355 0.682073
vt 0.092843 0.887456
vt 0.331227 0.887456
vt 0.331227 0.867590
vt 0.092843 0.867590
vt 0.053111 0.841076
vt 0.291495 0.841076
vt 0.291495 0.821210
vt 0.053111 0.821210
vt 0.980216 0.966918
vt 0.980216 0.947053
vt 0.861023 0.947053
vt 0.861023 0.966918
vt 0.251763 0.337711
vt 0.251763 0.317846
vt 0.132571 0.317846
vt 0.132571 0.337711
vt 0.629207 0.960351
vt 0.529880 0.960351
vt 0.529880 0.980217
vt 0.629207 0.980217
vt 0.980216 0.244952
vt 0.980216 0.145625
vt 0.543177 0.145625
vt 0.543177 0.244952
vt 0.980216 0.119111
vt 0.980216 0.019783
vt 0.543177 0.019783
vt 0.543177 0.119111
vt 0.145789 0.582826
vt 0.046462 0.582826
vt 0.046462 0.602691
vt 0.145789 0.602691
vt 0.516663 0.496634
vt 0.516663 0.397307
vt 0.318009 0.397307
vt 0.318009 0.496634
vt 0.106058 0.205303
vt 0.006731 0.205303
vt 0.006731 0.225170
vt 0.106058 0.225170
vt 0.106058 0.317844
vt 0.006731 0.317844
vt 0.006731 0.337711
vt 0.106058 0.337711
vt 0.980217 0.874158
vt 0.980217 0.774831
vt 0.781562 0.774831
vt 0.781562 0.874158
vt 0.106058 0.112543
vt 0.006731 0.112543
vt 0.006731 0.132408
vt 0.106058 0.132408
vt 0.556393 0.622475
vt 0.556393 0.523148
vt 0.318009 0.523148
vt 0.318009 0.622475
vt 0.516663 0.244952
vt 0.516663 0.145625
vt 0.278279 0.145625
vt 0.278279 0.244952
vt 0.106058 0.066163
vt 0.006731 0.066163
vt 0.006731 0.086029
vt 0.106058 0.086029
vt 0.980216 0.622475
vt 0.980216 0.523148
vt 0.582909 0.523148
vt 0.582909 0.622475
vt 0.145788 0.536447
vt 0.046461 0.536447
vt 0.046461 0.556312
vt 0.145788 0.556312
vt 0.755048 0.960351
vt 0.655721 0.960351
vt 0.655721 0.980217
vt 0.755048 0.980217
vt 0.980216 0.748317
vt 0.980216 0.648990
vt 0.582909 0.648990
vt 0.582909 0.748317
vt 0.132572 0.019784
vt 0.132572 0.119111
vt 0.251764 0.119111
vt 0.251764 0.019784
vt 0.145789 0.490068
vt 0.046462 0.490068
vt 0.046462 0.509933
vt 0.145789 0.509933
vt 0.251683 0.960351
vt 0.152356 0.960351
vt 0.152356 0.980217
vt 0.251683 0.980217
vt 0.132571 0.145625
vt 0.132571 0.244952
vt 0.251763 0.244952
vt 0.251763 0.145625
vt 0.145789 0.629207
vt 0.046462 0.629207
vt 0.046462 0.649072
vt 0.145789 0.649072
vt 0.980216 0.370793
vt 0.980216 0.271466
vt 0.543177 0.271466
vt 0.543177 0.370793
vt 0.980216 0.496634
vt 0.980216 0.397307
vt 0.543177 0.397307
vt 0.543177 0.496634
vt 0.377524 0.960351
vt 0.278198 0.960351
vt 0.278198 0.980217
vt 0.377524 0.980217
vt 0.106058 0.158923
vt 0.006731 0.158923
vt 0.006731 0.178788
vt 0.106058 0.178788
vt 0.516663 0.119111
vt 0.516663 0.019783
vt 0.278279 0.019783
vt 0.278279 0.119111
vt 0.516663 0.370793
vt 0.516663 0.271466
vt 0.278279 0.271466
vt 0.278279 0.370793
vt 0.106058 0.019783
vt 0.006731 0.019783
vt 0.006731 0.039649
vt 0.106058 0.039649
vt 0.291495 0.496634
vt 0.291495 0.397307
vt 0.172303 0.397307
vt 0.172303 0.496634
vt 0.125842 0.960351
vt 0.026515 0.960351
vt 0.026515 0.980217
vt 0.125842 0.980217
vt 0.503366 0.960351
vt 0.404039 0.960351
vt 0.404039 0.980217
vt 0.503366 0.980217
vt 0.291495 0.622475
vt 0.291495 0.523148
vt 0.172303 0.523148
vt 0.172303 0.622475
vn 0.0000 -1.0000 0.0000
vn 0.0000 1.0000 0.0000
vn -1.0000 0.0000 0.0000
vn 0.0000 0.0000 -1.0000
vn 0.0000 0.0000 1.0000
vn 1.0000 0.0000 0.0000
usemtl Material.001
s off
f 2/1/1 4/2/1 3/3/1 1/4/1
f 8/5/2 6/6/2 5/7/2 7/8/2
f 10/9/1 12/10/1 11/11/1 9/12/1
f 16/13/2 14/14/2 13/15/2 15/16/2
f 18/17/1 20/18/1 19/19/1 17/20/1
f 24/21/2 22/22/2 21/23/2 23/24/2
f 26/25/1 28/26/1 27/27/1 25/28/1
f 32/29/2 30/30/2 29/31/2 31/32/2
f 34/33/1 36/34/1 35/35/1 33/36/1
f 40/37/2 38/38/2 37/39/2 39/40/2
f 42/41/1 44/42/1 43/43/1 41/44/1
f 48/45/2 46/46/2 45/47/2 47/48/2
f 50/49/1 52/50/1 51/51/1 49/52/1
f 56/53/2 54/54/2 53/55/2 55/56/2
f 58/57/1 60/58/1 59/59/1 57/60/1
f 64/61/2 62/62/2 61/63/2 63/64/2
f 66/65/3 68/66/3 67/67/3 65/68/3
f 69/69/4 71/70/4 72/71/4 70/72/4
f 74/73/5 76/74/5 75/75/5 73/76/5
f 77/77/6 79/78/6 80/79/6 78/80/6
f 82/81/3 84/82/3 83/83/3 81/84/3
f 85/85/4 87/86/4 88/87/4 86/88/4
f 90/89/5 92/90/5 91/91/5 89/92/5
f 93/93/6 95/94/6 96/95/6 94/96/6
f 98/97/3 100/98/3 99/99/3 97/100/3
f 101/101/4 103/102/4 104/103/4 102/104/4
f 106/105/5 108/106/5 107/107/5 105/108/5
f 109/109/6 111/110/6 112/111/6 110/112/6
f 114/113/3 116/114/3 115/115/3 113/116/3
f 117/117/4 119/118/4 120/119/4 118/120/4
f 122/121/5 124/122/5 123/123/5 121/124/5
f 125/125/6 127/126/6 128/127/6 126/128/6
f 130/129/3 132/130/3 131/131/3 129/132/3
f 133/133/4 135/134/4 136/135/4 134/136/4
f 138/137/5 140/138/5 139/139/5 137/140/5
f 141/141/6 143/142/6 144/143/6 142/144/6
f 146/145/3 148/146/3 147/147/3 145/148/3
f 149/149/4 151/150/4 152/151/4 150/152/4
f 154/153/5 156/154/5 155/155/5 153/156/5
f 157/157/6 159/158/6 160/159/6 158/160/6
f 162/161/3 164/162/3 163/163/3 161/164/3
f 165/165/4 167/166/4 168/167/4 166/168/4
f 170/169/5 172/170/5 171/171/5 169/172/5
f 173/173/6 175/174/6 176/175/6 174/176/6
f 178/177/3 180/178/3 179/179/3 177/180/3
f 181/181/4 183/182/4 184/183/4 182/184/4
f 186/185/5 188/186/5 187/187/5 185/188/5
f 189/189/6 191/190/6 192/191/6 190/192/6
o Floor_Cube.006
v 22.000000 -2.000000 10.000000
v 22.000000 0.000000 10.000000
v 22.000000 -2.000000 -10.000000
v 22.000000 0.000000 -10.000000
v 48.000000 -2.000000 10.000000
v 48.000000 0.000000 10.000000
v 48.000000 -2.000000 -10.000000
v 48.000000 0.000000 -10.000000
v 22.000000 0.000000 -22.000000
v 22.000000 -2.000000 -22.000000
v 22.000000 0.000000 22.000000
v 22.000000 -2.000000 22.000000
v -22.000000 0.000000 -22.000000
v -22.000000 -2.000000 -22.000000
v -22.000000 0.000000 22.000000
v -22.000000 -2.000000 22.000000
vt 0.395985 0.524467
vt 0.395985 0.502338
vt 0.174693 0.502338
vt 0.174693 0.524467
vt 0.497660 0.758917
vt 0.497660 0.736787
vt 0.209981 0.736787
vt 0.209981 0.758917
vt 0.395985 0.559754
vt 0.395985 0.537625
vt 0.174693 0.537625
vt 0.174693 0.559754
vt 0.497660 0.794204
vt 0.497660 0.772075
vt 0.209981 0.772075
vt 0.209981 0.794204
vt 0.709981 0.723630
vt 0.997660 0.723630
vt 0.997660 0.502338
vt 0.709981 0.502338
vt 0.409144 0.723630
vt 0.696822 0.723630
vt 0.696822 0.502338
vt 0.409144 0.502338
vt 0.010820 0.489180
vt 0.497659 0.489180
vt 0.497659 0.002337
vt 0.010820 0.002337
vt 0.997660 0.864779
vt 0.997660 0.842649
vt 0.510819 0.842649
vt 0.510819 0.864779
vt 0.997661 0.758917
vt 0.997661 0.736788
vt 0.510818 0.736788
vt 0.510818 0.758917
vt 0.510819 0.489180
vt 0.997660 0.489180
vt 0.997660 0.002337
vt 0.510819 0.002337
vt 0.997661 0.794204
vt 0.997661 0.772075
vt 0.510818 0.772075
vt 0.510818 0.794204
vt 0.997659 0.829491
vt 0.997659 0.807362
vt 0.510820 0.807362
vt 0.510820 0.829491
vn -1.0000 0.0000 0.0000
vn 0.0000 0.0000 -1.0000
vn 1.0000 0.0000 0.0000
vn 0.0000 0.0000 1.0000
vn 0.0000 -1.0000 0.0000
vn 0.0000 1.0000 0.0000
usemtl Material
s off
f 193/193/7 194/194/7 196/195/7 195/196/7
f 195/197/8 196/198/8 200/199/8 199/200/8
f 199/201/9 200/202/9 198/203/9 197/204/9
f 197/205/10 198/206/10 194/207/10 193/208/10
f 195/209/11 199/210/11 197/211/11 193/212/11
f 200/213/12 196/214/12 194/215/12 198/216/12
f 201/217/12 205/218/12 207/219/12 203/220/12
f 204/221/10 203/222/10 207/223/10 208/224/10
f 208/225/7 207/226/7 205/227/7 206/228/7
f 206/229/11 202/230/11 204/231/11 208/232/11
f 202/233/9 201/234/9 203/235/9 204/236/9
f 206/237/8 205/238/8 201/239/8 202/240/8
o Roof_Cube.001
v 22.000000 10.000000 10.000000
v 22.000000 12.000000 10.000000
v 22.000000 10.000000 -10.000000
v 22.000000 12.000000 -10.000000
v 48.000000 10.000000 10.000000
v 48.000000 12.000000 10.000000
v 48.000000 10.000000 -10.000000
v 48.000000 12.000000 -10.000000
v 22.000000 12.000000 -22.000000
v 22.000000 10.000000 -22.000000
v 22.000000 12.000000 22.000000
v 22.000000 10.000000 22.000000
v -22.000000 12.000000 -22.000000
v -22.000000 10.000000 -22.000000
v -22.000000 12.000000 22.000000
v -22.000000 10.000000 22.000000
vt 0.395985 0.524467
vt 0.395985 0.502338
vt 0.174693 0.502338
vt 0.174693 0.524467
vt 0.497660 0.758917
vt 0.497660 0.736787
vt 0.209981 0.736787
vt 0.209981 0.758917
vt 0.395985 0.559754
vt 0.395985 0.537625
vt 0.174693 0.537625
vt 0.174693 0.559754
vt 0.497660 0.794204
vt 0.497660 0.772075
vt 0.209981 0.772075
vt 0.209981 0.794204
vt 0.709981 0.723630
vt 0.997660 0.723630
vt 0.997660 0.502338
vt 0.709981 0.502338
vt 0.409144 0.723630
vt 0.696822 0.723630
vt 0.696822 0.502338
vt 0.409144 0.502338
vt 0.010820 0.489180
vt 0.497659 0.489180
vt 0.497659 0.002337
vt 0.010820 0.002337
vt 0.997660 0.864779
vt 0.997660 0.842649
vt 0.510819 0.842649
vt 0.510819 0.864779
vt 0.997661 0.758917
vt 0.997661 0.736788
vt 0.510818 0.736788
vt 0.510818 0.758917
vt 0.510819 0.489180
vt 0.997660 0.489180
vt 0.997660 0.002337
vt 0.510819 0.002337
vt 0.997661 0.794204
vt 0.997661 0.772075
vt 0.510818 0.772075
vt 0.510818 0.794204
vt 0.997659 0.829491
vt 0.997659 0.807362
vt 0.510820 0.807362
vt 0.510820 0.829491
vn -1.0000 0.0000 0.0000
vn 0.0000 0.0000 -1.0000
vn 1.0000 0.0000 0.0000
vn 0.0000 0.0000 1.0000
vn 0.0000 -1.0000 0.0000
vn 0.0000 1.0000 0.0000
usemtl Material.002
s off
f 209/241/13 210/242/13 212/243/13 211/244/13
f 211/245/14 212/246/14 216/247/14 215/248/14
f 215/249/15 216/250/15 214/251/15 213/252/15
f 213/253/16 214/254/16 210/255/16 209/256/16
f 211/257/17 215/258/17 213/259/17 209/260/17
f 216/261/18 212/262/18 210/263/18 214/264/18
f 217/265/18 221/266/18 223/267/18 219/268/18
f 220/269/16 219/270/16 223/271/16 224/272/16
f 224/273/13 223/274/13 221/275/13 222/276/13
f 222/277/17 218/278/17 220/279/17 224/280/17
f 218/281/15 217/282/15 219/283/15 220/284/15
f 222/285/14 221/286/14 217/287/14 218/288/14
