# Blender v2.91.0 OBJ File: 'Scene_Base.blend'
# www.blender.org
mtllib Scene_Base.mtl
o Walls_Cube.002
v -22.000000 0.000000 22.000000
v -22.000000 0.000000 20.000000
v 22.000000 0.000000 22.000000
v 22.000000 0.000000 20.000000
v -22.000000 10.000000 22.000000
v -22.000000 10.000000 20.000000
v 22.000000 10.000000 22.000000
v 22.000000 10.000000 20.000000
v 46.000000 0.000000 9.999999
v 46.000000 0.000000 -10.000000
v 47.999996 0.000000 9.999999
v 47.999996 0.000000 -10.000000
v 46.000000 10.000000 9.999999
v 46.000000 10.000000 -10.000000
v 47.999996 10.000000 9.999999
v 47.999996 10.000000 -10.000000
v 22.000000 0.000000 9.999999
v 22.000000 0.000000 7.999999
v 46.000000 0.000000 9.999999
v 46.000000 0.000000 7.999999
v 22.000000 10.000000 9.999999
v 22.000000 10.000000 7.999999
v 46.000000 10.000000 9.999999
v 46.000000 10.000000 7.999999
v -21.999998 0.000000 19.999998
v -21.999998 0.000000 -20.000000
v -19.999998 0.000000 19.999998
v -19.999998 0.000000 -20.000000
v -21.999998 10.000000 19.999998
v -21.999998 10.000000 -20.000000
v -19.999998 10.000000 19.999998
v -19.999998 10.000000 -20.000000
v 19.999998 0.000000 19.999998
v 19.999998 0.000000 8.000000
v 21.999998 0.000000 19.999998
v 21.999998 0.000000 8.000000
v 19.999998 10.000000 19.999998
v 19.999998 10.000000 8.000000
v 21.999998 10.000000 19.999998
v 21.999998 10.000000 8.000000
v -21.999998 0.000000 -20.000000
v -21.999998 0.000000 -22.000000
v 21.999998 0.000000 -20.000000
v 21.999998 0.000000 -22.000000
v -21.999998 10.000000 -20.000000
v -21.999998 10.000000 -22.000000
v 21.999998 10.000000 -20.000000
v 21.999998 10.000000 -22.000000
v 22.000000 0.000000 -8.000000
v 22.000000 0.000000 -10.000000
v 46.000000 0.000000 -8.000000
v 46.000000 0.000000 -10.000000
v 22.000000 10.000000 -8.000000
v 22.000000 10.000000 -10.000000
v 46.000000 10.000000 -8.000000
v 46.000000 10.000000 -10.000000
v 19.999998 0.000000 -8.000000
v 19.999998 0.000000 -20.000000
v 21.999998 0.000000 -8.000000
v 21.999998 0.000000 -20.000000
v 19.999998 10.000000 -8.000000
v 19.999998 10.000000 -20.000000
v 21.999998 10.000000 -8.000000
v 21.999998 10.000000 -20.000000
v -22.000000 0.000000 20.000000
v -22.000000 0.000000 22.000000
v -22.000000 10.000000 20.000000
v -22.000000 10.000000 22.000000
v -22.000000 0.000000 20.000000
v 22.000000 0.000000 20.000000
v -22.000000 10.000000 20.000000
v 22.000000 10.000000 20.000000
v -22.000000 0.000000 22.000000
v 22.000000 0.000000 22.000000
v -22.000000 10.000000 22.000000
v 22.000000 10.000000 22.000000
v 22.000000 0.000000 20.000000
v 22.000000 0.000000 22.000000
v 22.000000 10.000000 20.000000
v 22.000000 10.000000 22.000000
v 46.000000 0.000000 -10.000000
v 46.000000 0.000000 9.999999
v 46.000000 10.000000 -10.000000
v 46.000000 10.000000 9.999999
v 46.000000 0.000000 -10.000000
v 47.999996 0.000000 -10.000000
v 46.000000 10.000000 -10.000000
v 47.999996 10.000000 -10.000000
v 46.000000 0.000000 9.999999
v 47.999996 0.000000 9.999999
v 46.000000 10.000000 9.999999
v 47.999996 10.000000 9.999999
v 47.999996 0.000000 -10.000000
v 47.999996 0.000000 9.999999
v 47.999996 10.000000 -10.000000
v 47.999996 10.000000 9.999999
v 22.000000 0.000000 7.999999
v 22.000000 0.000000 9.999999
v 22.000000 10.000000 7.999999
v 22.000000 10.000000 9.999999
v 22.000000 0.000000 7.999999
v 46.000000 0.000000 7.999999
v 22.000000 10.000000 7.999999
v 46.000000 10.000000 7.999999
v 22.000000 0.000000 9.999999
v 46.000000 0.000000 9.999999
v 22.000000 10.000000 9.999999
v 46.000000 10.000000 9.999999
v 46.000000 0.000000 7.999999
v 46.000000 0.000000 9.999999
v 46.000000 10.000000 7.999999
v 46.000000 10.000000 9.999999
v -21.999998 0.000000 -20.000000
v -21.999998 0.000000 19.999998
v -21.999998 10.000000 -20.000000
v -21.999998 10.000000 19.999998
v -21.999998 0.000000 -20.000000
v -19.999998 0.000000 -20.000000
v -21.999998 10.000000 -20.000000
v -19.999998 10.000000 -20.000000
v -21.999998 0.000000 19.999998
v -19.999998 0.000000 19.999998
v -21.999998 10.000000 19.999998
v -19.999998 10.000000 19.999998
v -19.999998 0.000000 -20.000000
v -19.999998 0.000000 19.999998
v -19.999998 10.000000 -20.000000
v -19.999998 10.000000 19.999998
v 19.999998 0.000000 8.000000
v 19.999998 0.000000 19.999998
v 19.999998 10.000000 8.000000
v 19.999998 10.000000 19.999998
v 19.999998 0.000000 8.000000
v 21.999998 0.000000 8.000000
v 19.999998 10.000000 8.000000
v 21.999998 10.000000 8.000000
v 19.999998 0.000000 19.999998
v 21.999998 0.000000 19.999998
v 19.999998 10.000000 19.999998
v 21.999998 10.000000 19.999998
v 21.999998 0.000000 8.000000
v 21.999998 0.000000 19.999998
v 21.999998 10.000000 8.000000
v 21.999998 10.000000 19.999998
v -21.999998 0.000000 -22.000000
v -21.999998 0.000000 -20.000000
v -21.999998 10.000000 -22.000000
v -21.999998 10.000000 -20.000000
v -21.999998 0.000000 -22.000000
v 21.999998 0.000000 -22.000000
v -21.999998 10.000000 -22.000000
v 21.999998 10.000000 -22.000000
v -21.999998 0.000000 -20.000000
v 21.999998 0.000000 -20.000000
v -21.999998 10.000000 -20.000000
v 21.999998 10.000000 -20.000000
v 21.999998 0.000000 -22.000000
v 21.999998 0.000000 -20.000000
v 21.999998 10.000000 -22.000000
v 21.999998 10.000000 -20.000000
v 22.000000 0.000000 -10.000000
v 22.000000 0.000000 -8.000000
v 22.000000 10.000000 -10.000000
v 22.000000 10.000000 -8.000000
v 22.000000 0.000000 -10.000000
v 46.000000 0.000000 -10.000000
v 22.000000 10.000000 -10.000000
v 46.000000 10.000000 -10.000000
v 22.000000 0.000000 -8.000000
v 46.000000 0.000000 -8.000000
v 22.000000 10.000000 -8.000000
v 46.000000 10.000000 -8.000000
v 46.000000 0.000000 -10.000000
v 46.000000 0.000000 -8.000000
v 46.000000 10.000000 -10.000000
v 46.000000 10.000000 -8.000000
v 19.999998 0.000000 -20.000000
v 19.999998 0.000000 -8.000000
v 19.999998 10.000000 -20.000000
v 19.999998 10.000000 -8.000000
v 19.999998 0.000000 -20.000000
v 21.999998 0.000000 -20.000000
v 19.999998 10.000000 -20.000000
v 21.999998 10.000000 -20.000000
v 19.999998 0.000000 -8.000000
v 21.999998 0.000000 -8.000000
v 19.999998 10.000000 -8.000000
v 21.999998 10.000000 -8.000000
v 21.999998 0.000000 -20.000000
v 21.999998 0.000000 -8.000000
v 21.999998 10.000000 -20.000000
v 21.999998 10.000000 -8.000000
vt 0.755047 0.841077
vt 0.318009 0.821212
vt 0.318009 0.841077
vt 0.755047 0.794696
vt 0.318009 0.774831
vt 0.318009 0.794696
vt 0.980217 0.900672
vt 0.781562 0.920539
vt 0.980217 0.920539
vt 0.251765 0.271465
vt 0.053111 0.291332
vt 0.251765 0.291332
vt 0.291497 0.794696
vt 0.053113 0.774831
vt 0.053113 0.794696
vt 0.331225 0.933835
vt 0.092841 0.913970
vt 0.092841 0.933835
vt 0.755047 0.913970
vt 0.357741 0.933836
vt 0.755047 0.933836
vt 0.755047 0.867591
vt 0.357741 0.887456
vt 0.755047 0.887456
vt 0.145789 0.443687
vt 0.026596 0.463552
vt 0.145789 0.463552
vt 0.145789 0.397308
vt 0.026596 0.417173
vt 0.145789 0.417173
vt 0.556393 0.748317
vt 0.119355 0.728452
vt 0.119355 0.748317
vt 0.556393 0.701938
vt 0.119355 0.682073
vt 0.119355 0.701938
vt 0.331227 0.887456
vt 0.092843 0.867590
vt 0.092843 0.887456
vt 0.291495 0.841076
vt 0.053111 0.821210
vt 0.053111 0.841076
vt 0.980216 0.947053
vt 0.861023 0.966918
vt 0.980216 0.966918
vt 0.251763 0.317846
vt 0.132571 0.337711
vt 0.251763 0.337711
vt 0.529880 0.960351
vt 0.629207 0.980217
vt 0.629207 0.960351
vt 0.980216 0.145625
vt 0.543177 0.244952
vt 0.980216 0.244952
vt 0.980216 0.019783
vt 0.543177 0.119111
vt 0.980216 0.119111
vt 0.046462 0.582826
vt 0.145789 0.602691
vt 0.145789 0.582826
vt 0.516663 0.397307
vt 0.318009 0.496634
vt 0.516663 0.496634
vt 0.006731 0.205303
vt 0.106058 0.225170
vt 0.106058 0.205303
vt 0.006731 0.317844
vt 0.106058 0.337711
vt 0.106058 0.317844
vt 0.980217 0.774831
vt 0.781562 0.874158
vt 0.980217 0.874158
vt 0.006731 0.112543
vt 0.106058 0.132408
vt 0.106058 0.112543
vt 0.556393 0.523148
vt 0.318009 0.622475
vt 0.556393 0.622475
vt 0.516663 0.145625
vt 0.278279 0.244952
vt 0.516663 0.244952
vt 0.006731 0.066163
vt 0.106058 0.086029
vt 0.106058 0.066163
vt 0.980216 0.523148
vt 0.582909 0.622475
vt 0.980216 0.622475
vt 0.046461 0.536447
vt 0.145788 0.556312
vt 0.145788 0.536447
vt 0.655721 0.960351
vt 0.755048 0.980217
vt 0.755048 0.960351
vt 0.980216 0.648990
vt 0.582909 0.748317
vt 0.980216 0.748317
vt 0.132572 0.119111
vt 0.251764 0.019784
vt 0.132572 0.019784
vt 0.046462 0.490068
vt 0.145789 0.509933
vt 0.145789 0.490068
vt 0.152356 0.960351
vt 0.251683 0.980217
vt 0.251683 0.960351
vt 0.132571 0.244952
vt 0.251763 0.145625
vt 0.132571 0.145625
vt 0.046462 0.629207
vt 0.145789 0.649072
vt 0.145789 0.629207
vt 0.980216 0.271466
vt 0.543177 0.370793
vt 0.980216 0.370793
vt 0.980216 0.397307
vt 0.543177 0.496634
vt 0.980216 0.496634
vt 0.278198 0.960351
vt 0.377524 0.980217
vt 0.377524 0.960351
vt 0.006731 0.158923
vt 0.106058 0.178788
vt 0.106058 0.158923
vt 0.516663 0.019783
vt 0.278279 0.119111
vt 0.516663 0.119111
vt 0.516663 0.271466
vt 0.278279 0.370793
vt 0.516663 0.370793
vt 0.006731 0.019783
vt 0.106058 0.039649
vt 0.106058 0.019783
vt 0.291495 0.397307
vt 0.172303 0.496634
vt 0.291495 0.496634
vt 0.026515 0.960351
vt 0.125842 0.980217
vt 0.125842 0.960351
vt 0.404039 0.960351
vt 0.503366 0.980217
vt 0.503366 0.960351
vt 0.291495 0.523148
vt 0.172303 0.622475
vt 0.291495 0.622475
vt 0.755047 0.821212
vt 0.755047 0.774831
vt 0.781562 0.900672
vt 0.053111 0.271465
vt 0.291497 0.774831
vt 0.331225 0.913970
vt 0.357741 0.913970
vt 0.357741 0.867591
vt 0.026596 0.443687
vt 0.026596 0.397308
vt 0.556393 0.728452
vt 0.556393 0.682073
vt 0.331227 0.867590
vt 0.291495 0.821210
vt 0.861023 0.947053
vt 0.132571 0.317846
vt 0.529880 0.980217
vt 0.543177 0.145625
vt 0.543177 0.019783
vt 0.046462 0.602691
vt 0.318009 0.397307
vt 0.006731 0.225170
vt 0.006731 0.337711
vt 0.781562 0.774831
vt 0.006731 0.132408
vt 0.318009 0.523148
vt 0.278279 0.145625
vt 0.006731 0.086029
vt 0.582909 0.523148
vt 0.046461 0.556312
vt 0.655721 0.980217
vt 0.582909 0.648990
vt 0.251764 0.119111
vt 0.046462 0.509933
vt 0.152356 0.980217
vt 0.251763 0.244952
vt 0.046462 0.649072
vt 0.543177 0.271466
vt 0.543177 0.397307
vt 0.278198 0.980217
vt 0.006731 0.178788
vt 0.278279 0.019783
vt 0.278279 0.271466
vt 0.006731 0.039649
vt 0.172303 0.397307
vt 0.026515 0.980217
vt 0.404039 0.980217
vt 0.172303 0.523148
vn 0.0000 -1.0000 0.0000
vn 0.0000 1.0000 0.0000
vn -1.0000 0.0000 0.0000
vn 0.0000 0.0000 -1.0000
vn 0.0000 0.0000 1.0000
vn 1.0000 0.0000 0.0000
usemtl Material.001
s off
f 4/1/1 1/2/1 2/3/1
f 6/4/2 7/5/2 8/6/2
f 12/7/1 9/8/1 10/9/1
f 14/10/2 15/11/2 16/12/2
f 20/13/1 17/14/1 18/15/1
f 22/16/2 23/17/2 24/18/2
f 28/19/1 25/20/1 26/21/1
f 30/22/2 31/23/2 32/24/2
f 36/25/1 33/26/1 34/27/1
f 38/28/2 39/29/2 40/30/2
f 44/31/1 41/32/1 42/33/1
f 46/34/2 47/35/2 48/36/2
f 52/37/1 49/38/1 50/39/1
f 54/40/2 55/41/2 56/42/2
f 60/43/1 57/44/1 58/45/1
f 62/46/2 63/47/2 64/48/2
f 68/49/3 65/50/3 66/51/3
f 71/52/4 70/53/4 69/54/4
f 76/55/5 73/56/5 74/57/5
f 79/58/6 78/59/6 77/60/6
f 84/61/3 81/62/3 82/63/3
f 87/64/4 86/65/4 85/66/4
f 92/67/5 89/68/5 90/69/5
f 95/70/6 94/71/6 93/72/6
f 100/73/3 97/74/3 98/75/3
f 103/76/4 102/77/4 101/78/4
f 108/79/5 105/80/5 106/81/5
f 111/82/6 110/83/6 109/84/6
f 116/85/3 113/86/3 114/87/3
f 119/88/4 118/89/4 117/90/4
f 124/91/5 121/92/5 122/93/5
f 127/94/6 126/95/6 125/96/6
f 132/97/3 129/98/3 130/99/3
f 135/100/4 134/101/4 133/102/4
f 140/103/5 137/104/5 138/105/5
f 143/106/6 142/107/6 141/108/6
f 148/109/3 145/110/3 146/111/3
f 151/112/4 150/113/4 149/114/4
f 156/115/5 153/116/5 154/117/5
f 159/118/6 158/119/6 157/120/6
f 164/121/3 161/122/3 162/123/3
f 167/124/4 166/125/4 165/126/4
f 172/127/5 169/128/5 170/129/5
f 175/130/6 174/131/6 173/132/6
f 180/133/3 177/134/3 178/135/3
f 183/136/4 182/137/4 181/138/4
f 188/139/5 185/140/5 186/141/5
f 191/142/6 190/143/6 189/144/6
f 4/1/1 3/145/1 1/2/1
f 6/4/2 5/146/2 7/5/2
f 12/7/1 11/147/1 9/8/1
f 14/10/2 13/148/2 15/11/2
f 20/13/1 19/149/1 17/14/1
f 22/16/2 21/150/2 23/17/2
f 28/19/1 27/151/1 25/20/1
f 30/22/2 29/152/2 31/23/2
f 36/25/1 35/153/1 33/26/1
f 38/28/2 37/154/2 39/29/2
f 44/31/1 43/155/1 41/32/1
f 46/34/2 45/156/2 47/35/2
f 52/37/1 51/157/1 49/38/1
f 54/40/2 53/158/2 55/41/2
f 60/43/1 59/159/1 57/44/1
f 62/46/2 61/160/2 63/47/2
f 68/49/3 67/161/3 65/50/3
f 71/52/4 72/162/4 70/53/4
f 76/55/5 75/163/5 73/56/5
f 79/58/6 80/164/6 78/59/6
f 84/61/3 83/165/3 81/62/3
f 87/64/4 88/166/4 86/65/4
f 92/67/5 91/167/5 89/68/5
f 95/70/6 96/168/6 94/71/6
f 100/73/3 99/169/3 97/74/3
f 103/76/4 104/170/4 102/77/4
f 108/79/5 107/171/5 105/80/5
f 111/82/6 112/172/6 110/83/6
f 116/85/3 115/173/3 113/86/3
f 119/88/4 120/174/4 118/89/4
f 124/91/5 123/175/5 121/92/5
f 127/94/6 128/176/6 126/95/6
f 132/97/3 131/177/3 129/98/3
f 135/100/4 136/178/4 134/101/4
f 140/103/5 139/179/5 137/104/5
f 143/106/6 144/180/6 142/107/6
f 148/109/3 147/181/3 145/110/3
f 151/112/4 152/182/4 150/113/4
f 156/115/5 155/183/5 153/116/5
f 159/118/6 160/184/6 158/119/6
f 164/121/3 163/185/3 161/122/3
f 167/124/4 168/186/4 166/125/4
f 172/127/5 171/187/5 169/128/5
f 175/130/6 176/188/6 174/131/6
f 180/133/3 179/189/3 177/134/3
f 183/136/4 184/190/4 182/137/4
f 188/139/5 187/191/5 185/140/5
f 191/142/6 192/192/6 190/143/6
o Floor_Cube.006
v 22.000000 -2.000000 10.000000
v 22.000000 0.000000 10.000000
v 22.000000 -2.000000 -10.000000
v 22.000000 0.000000 -10.000000
v 48.000000 -2.000000 10.000000
v 48.000000 0.000000 10.000000
v 48.000000 -2.000000 -10.000000
v 48.000000 0.000000 -10.000000
v 22.000000 0.000000 -22.000000
v 22.000000 -2.000000 -22.000000
v 22.000000 0.000000 22.000000
v 22.000000 -2.000000 22.000000
v -22.000000 0.000000 -22.000000
v -22.000000 -2.000000 -22.000000
v -22.000000 0.000000 22.000000
v -22.000000 -2.000000 22.000000
vt 0.395985 0.502338
vt 0.174693 0.524467
vt 0.395985 0.524467
vt 0.497660 0.736787
vt 0.209981 0.758917
vt 0.497660 0.758917
vt 0.395985 0.537625
vt 0.174693 0.559754
vt 0.395985 0.559754
vt 0.497660 0.772075
vt 0.209981 0.794204
vt 0.497660 0.794204
vt 0.997660 0.723630
vt 0.709981 0.502338
vt 0.709981 0.723630
vt 0.696822 0.723630
vt 0.409144 0.502338
vt 0.409144 0.723630
vt 0.497659 0.489180
vt 0.010820 0.002337
vt 0.010820 0.489180
vt 0.997660 0.842649
vt 0.510819 0.864779
vt 0.997660 0.864779
vt 0.997661 0.736788
vt 0.510818 0.758917
vt 0.997661 0.758917
vt 0.997660 0.489180
vt 0.510819 0.002337
vt 0.510819 0.489180
vt 0.997661 0.772075
vt 0.510818 0.794204
vt 0.997661 0.794204
vt 0.997659 0.807362
vt 0.510820 0.829491
vt 0.997659 0.829491
vt 0.174693 0.502338
vt 0.209981 0.736787
vt 0.174693 0.537625
vt 0.209981 0.772075
vt 0.997660 0.502338
vt 0.696822 0.502338
vt 0.497659 0.002337
vt 0.510819 0.842649
vt 0.510818 0.736788
vt 0.997660 0.002337
vt 0.510818 0.772075
vt 0.510820 0.807362
vn -1.0000 0.0000 0.0000
vn 0.0000 0.0000 -1.0000
vn 1.0000 0.0000 0.0000
vn 0.0000 0.0000 1.0000
vn 0.0000 -1.0000 0.0000
vn 0.0000 1.0000 0.0000
usemtl Material
s off
f 194/193/7 195/194/7 193/195/7
f 196/196/8 199/197/8 195/198/8
f 200/199/9 197/200/9 199/201/9
f 198/202/10 193/203/10 197/204/10
f 199/205/11 193/206/11 195/207/11
f 196/208/12 198/209/12 200/210/12
f 205/211/12 203/212/12 201/213/12
f 203/214/10 208/215/10 204/216/10
f 207/217/7 206/218/7 208/219/7
f 202/220/11 208/221/11 206/222/11
f 201/223/9 204/224/9 202/225/9
f 205/226/8 202/227/8 206/228/8
f 194/193/7 196/229/7 195/194/7
f 196/196/8 200/230/8 199/197/8
f 200/199/9 198/231/9 197/200/9
f 198/202/10 194/232/10 193/203/10
f 199/205/11 197/233/11 193/206/11
f 196/208/12 194/234/12 198/209/12
f 205/211/12 207/235/12 203/212/12
f 203/214/10 207/236/10 208/215/10
f 207/217/7 205/237/7 206/218/7
f 202/220/11 204/238/11 208/221/11
f 201/223/9 203/239/9 204/224/9
f 205/226/8 201/240/8 202/227/8
